<svg width="421" height="58" viewBox="0 0 421 58" fill="none" xmlns="http://www.w3.org/2000/svg">
<path d="M0.71875 53.4062L10.5234 16.2188C13.1797 6.08854 21.8255 1.01042 36.4609 0.984375H57.5156C58.4792 0.984375 59.2734 1.34896 59.8984 2.07812C60.5495 2.80729 60.875 3.65365 60.875 4.61719V53.4062C60.875 54.4219 60.5104 55.2812 59.7812 55.9844C59.0521 56.6615 58.1797 57 57.1641 57H49.8203C48.7526 57 47.8672 56.6615 47.1641 55.9844C46.487 55.2812 46.1484 54.3958 46.1484 53.3281V43.4844H18.375L15.7578 53.3281C15.4974 54.3958 14.9115 55.2812 14 55.9844C13.0885 56.6615 12.125 57 11.1094 57H3.41406C2.39844 57 1.66927 56.7135 1.22656 56.1406C0.783854 55.5417 0.5625 55.0208 0.5625 54.5781C0.588542 54.1354 0.640625 53.7448 0.71875 53.4062ZM21.2656 32.4297H46.1484V12.0391H35.0156C32.5156 12.0391 30.3281 12.7552 28.4531 14.1875C26.6042 15.5938 25.3542 17.4948 24.7031 19.8906L21.2656 32.4297ZM71.2656 3.40625C71.2656 2.70312 71.487 2.13021 71.9297 1.6875C72.3984 1.21875 72.9714 0.984375 73.6484 0.984375H82.3984C83.0755 0.984375 83.6354 1.21875 84.0781 1.6875C84.5469 2.13021 84.7812 2.70312 84.7812 3.40625V15.3984C89 14.0703 92.763 13.4062 96.0703 13.4062C102.477 13.4062 107.568 15.3203 111.344 19.1484C115.12 22.9505 117.008 28.4453 117.008 35.6328C117.008 50.3984 108.74 57.7812 92.2031 57.7812C88.4271 57.7812 84.5078 57.3646 80.4453 56.5312C76.4089 55.6719 73.349 54.6302 71.2656 53.4062V3.40625ZM84.7812 24.4219V47.4688C87.0208 48.0677 89.8724 48.3672 93.3359 48.3672C96.7995 48.3672 99.2865 47.3646 100.797 45.3594C102.333 43.3542 103.102 40.112 103.102 35.6328C103.102 31.1536 102.346 27.9115 100.836 25.9062C99.3516 23.875 96.8255 22.8594 93.2578 22.8594C90.9661 22.8594 88.1406 23.3802 84.7812 24.4219ZM127.906 52.1562C123.844 48.4062 121.812 42.8854 121.812 35.5938C121.812 28.276 123.844 22.7552 127.906 19.0312C131.969 15.2812 137.802 13.4062 145.406 13.4062C153.036 13.4062 158.883 15.2812 162.945 19.0312C167.008 22.7552 169.039 28.276 169.039 35.5938C169.039 42.8854 167.008 48.4062 162.945 52.1562C158.883 55.9062 153.036 57.7812 145.406 57.7812C137.802 57.7812 131.969 55.9062 127.906 52.1562ZM137.789 25.4375C136.174 27.5469 135.367 30.9193 135.367 35.5547C135.367 40.1901 136.174 43.5755 137.789 45.7109C139.404 47.8464 141.943 48.9141 145.406 48.9141C148.896 48.9141 151.448 47.8464 153.062 45.7109C154.703 43.5755 155.523 40.1901 155.523 35.5547C155.523 30.9193 154.703 27.5469 153.062 25.4375C151.448 23.3281 148.896 22.2734 145.406 22.2734C141.943 22.2734 139.404 23.3281 137.789 25.4375ZM176.266 38.9922V16.6094C176.266 15.9062 176.487 15.3333 176.93 14.8906C177.398 14.4219 177.971 14.1875 178.648 14.1875H187.398C188.076 14.1875 188.635 14.4219 189.078 14.8906C189.547 15.3333 189.781 15.9062 189.781 16.6094V38.9922C189.781 45.2422 192.255 48.3672 197.203 48.3672C200.458 48.3672 203.961 46.4922 207.711 42.7422V16.6094C207.711 15.9062 207.932 15.3333 208.375 14.8906C208.844 14.4219 209.417 14.1875 210.094 14.1875H218.805C219.508 14.1875 220.081 14.4219 220.523 14.8906C220.992 15.3333 221.227 15.9062 221.227 16.6094V54.6172C221.227 55.2943 220.992 55.8672 220.523 56.3359C220.081 56.7786 219.508 57 218.805 57H210.094C209.417 57 208.844 56.7786 208.375 56.3359C207.932 55.8672 207.711 55.2943 207.711 54.6172V52.1172C203.232 55.8932 198.453 57.7812 193.375 57.7812C188.323 57.7812 184.208 56.2448 181.031 53.1719C177.854 50.0729 176.266 45.3464 176.266 38.9922ZM251.266 48.5234L256.617 48.0547H258.062C258.766 48.0547 259.339 48.276 259.781 48.7188C260.25 49.1615 260.484 49.7344 260.484 50.4375V54.6172C260.484 55.1901 260.25 55.7109 259.781 56.1797C259.339 56.6224 258.766 56.8958 258.062 57C255.406 57.5208 251.943 57.7812 247.672 57.7812C236.474 57.7812 230.875 51.9219 230.875 40.2031V3.40625C230.875 2.70312 231.096 2.13021 231.539 1.6875C232.008 1.21875 232.581 0.984375 233.258 0.984375H242.008C242.685 0.984375 243.245 1.21875 243.688 1.6875C244.156 2.13021 244.391 2.70312 244.391 3.40625V16.4531H255.289C255.966 16.4531 256.526 16.6745 256.969 17.1172C257.438 17.5599 257.672 18.1328 257.672 18.8359V23.4844C257.672 24.1875 257.438 24.7604 256.969 25.2031C256.526 25.6458 255.966 25.8672 255.289 25.8672H244.391V40.2031C244.391 42.8594 245.016 44.9167 246.266 46.375C247.516 47.8073 249.182 48.5234 251.266 48.5234ZM295.719 53.25V4.77344C295.719 3.70573 296.07 2.80729 296.773 2.07812C297.477 1.34896 298.336 0.984375 299.352 0.984375H315.25C316.266 0.984375 317.229 1.34896 318.141 2.07812C319.052 2.80729 319.664 3.67969 319.977 4.69531L331.5 38.0547L343.023 4.69531C343.336 3.67969 343.948 2.80729 344.859 2.07812C345.771 1.34896 346.734 0.984375 347.75 0.984375H363.648C364.664 0.984375 365.51 1.34896 366.188 2.07812C366.891 2.80729 367.242 3.70573 367.242 4.77344V53.25C367.242 54.3177 366.878 55.2161 366.148 55.9453C365.445 56.6484 364.586 57 363.57 57H356.539C355.523 57 354.651 56.6484 353.922 55.9453C353.219 55.2161 352.867 54.3177 352.867 53.25V15.0859L339.078 53.4844C338.714 54.4479 338.076 55.2812 337.164 55.9844C336.253 56.6615 335.289 57 334.273 57H328.688C327.672 57 326.708 56.6615 325.797 55.9844C324.911 55.2812 324.273 54.4479 323.883 53.4844L310.133 15.0859V53.25C310.133 54.3177 309.768 55.2161 309.039 55.9453C308.336 56.6484 307.477 57 306.461 57H299.43C298.414 57 297.542 56.6484 296.812 55.9453C296.083 55.2161 295.719 54.3177 295.719 53.25ZM381.266 52.0781C377.255 48.276 375.25 42.8073 375.25 35.6719C375.25 28.5104 377.268 23.0156 381.305 19.1875C385.341 15.3333 390.94 13.4062 398.102 13.4062C405.263 13.4062 410.849 15.2812 414.859 19.0312C418.87 22.7552 420.875 28.1068 420.875 35.0859V37.3125C420.875 38.0156 420.641 38.6016 420.172 39.0703C419.729 39.513 419.156 39.7344 418.453 39.7344H389.039C389.299 42.9375 390.211 45.2682 391.773 46.7266C393.362 48.1849 395.888 48.9141 399.352 48.9141C402.815 48.9141 405.185 48.1328 406.461 46.5703C407.737 45.0078 409.312 44.2135 411.188 44.1875H417.008C417.711 44.1875 418.284 44.4219 418.727 44.8906C419.195 45.3333 419.43 45.9062 419.43 46.6094C419.43 54.0833 412.307 57.8073 398.062 57.7812C390.875 57.7812 385.276 55.8802 381.266 52.0781ZM388.961 31.4922H407.125C406.865 25.3464 403.844 22.2734 398.062 22.2734C392.307 22.2734 389.273 25.3464 388.961 31.4922Z" fill="url(#paint0_linear_3_16)"/>
<defs>
<linearGradient id="paint0_linear_3_16" x1="211.5" y1="-23" x2="211.5" y2="79" gradientUnits="userSpaceOnUse">
<stop offset="0.395191" stop-color="#057450"/>
<stop offset="1" stop-color="#010E0A"/>
</linearGradient>
</defs>
</svg>
