<svg width="441" height="44" viewBox="0 0 441 44" fill="none" xmlns="http://www.w3.org/2000/svg">
<path d="M5.75391 38.0488C2.14062 34.5918 0.333984 29.25 0.333984 22.0234C0.333984 14.7773 2.14062 9.42578 5.75391 5.96875C9.38672 2.49219 14.8262 0.753906 22.0723 0.753906H28.6055C33.0391 0.753906 36.9551 1.90625 40.3535 4.21094C43.7715 6.51563 45.4805 9.66992 45.4805 13.6738C45.4805 14.8262 45.1387 15.6562 44.4551 16.1641C43.7715 16.6523 43.1074 16.8965 42.4629 16.8965H38.9766C37.1797 16.8965 35.7832 15.8223 34.7871 13.6738C33.3418 10.5879 30.9395 9.04492 27.5801 9.04492H22.3652C18.0879 9.04492 15.1875 9.96289 13.6641 11.7988C12.1406 13.6348 11.3789 17.0332 11.3789 21.9941C11.3789 26.9551 12.1406 30.3633 13.6641 32.2188C15.1875 34.0547 18.0879 34.9727 22.3652 34.9727H28.1953C31.5547 34.9727 33.9473 33.4297 35.373 30.3438C36.3691 28.1758 37.7754 27.0918 39.5918 27.0918H43.0781C43.9961 27.0918 44.7188 27.4336 45.2461 28.1172C45.793 28.8008 46.0664 29.543 46.0664 30.3438C46.0664 34.3477 44.3672 37.502 40.9688 39.8066C37.5703 42.0918 33.6543 43.2344 29.2207 43.2344H22.0723C14.8262 43.2344 9.38672 41.5059 5.75391 38.0488ZM53.8887 39.3086C50.8809 36.457 49.377 32.3555 49.377 27.0039C49.377 21.6328 50.8906 17.5117 53.918 14.6406C56.9453 11.75 61.1445 10.3047 66.5156 10.3047C71.8867 10.3047 76.0762 11.7109 79.084 14.5234C82.0918 17.3164 83.5957 21.3301 83.5957 26.5645V28.2344C83.5957 28.7617 83.4199 29.2012 83.0684 29.5527C82.7363 29.8848 82.3066 30.0508 81.7793 30.0508H59.7188C59.9141 32.4531 60.5977 34.2012 61.7695 35.2949C62.9609 36.3887 64.8555 36.9355 67.4531 36.9355C70.0508 36.9355 71.8281 36.3496 72.7852 35.1777C73.7422 34.0059 74.9238 33.4102 76.3301 33.3906H80.6953C81.2227 33.3906 81.6523 33.5664 81.9844 33.918C82.3359 34.25 82.5117 34.6797 82.5117 35.207C82.5117 40.8125 77.1699 43.6055 66.4863 43.5859C61.0957 43.5859 56.8965 42.1602 53.8887 39.3086ZM59.6602 23.8691H73.2832C73.0879 19.2598 70.8223 16.9551 66.4863 16.9551C62.1699 16.9551 59.8945 19.2598 59.6602 23.8691ZM111.193 18.332L106.682 18.1562C104.045 18.1562 101.525 19.6016 99.123 22.4922V41.2129C99.123 41.7402 98.9473 42.1699 98.5957 42.502C98.2637 42.834 97.8438 43 97.3359 43H90.7734C90.2461 43 89.8164 42.834 89.4844 42.502C89.1523 42.1699 88.9863 41.7402 88.9863 41.2129V12.707C88.9863 12.1797 89.1523 11.75 89.4844 11.418C89.8359 11.0664 90.2656 10.8906 90.7734 10.8906H97.3359C97.8633 10.8906 98.293 11.0664 98.625 11.418C98.957 11.75 99.123 12.1797 99.123 12.707V14.5527C101.115 13.1074 103.029 12.043 104.865 11.3594C106.721 10.6562 109.143 10.3047 112.131 10.3047C112.658 10.3047 113.088 10.4805 113.42 10.832C113.771 11.1641 113.947 11.584 113.947 12.0918V16.5449C113.947 17.0723 113.771 17.502 113.42 17.834C113.088 18.166 112.658 18.332 112.131 18.332H111.193ZM133.459 36.6426L137.473 36.291H138.557C139.084 36.291 139.514 36.457 139.846 36.7891C140.197 37.1211 140.373 37.5508 140.373 38.0781V41.2129C140.373 41.6426 140.197 42.0332 139.846 42.3848C139.514 42.7168 139.084 42.9219 138.557 43C136.564 43.3906 133.967 43.5859 130.764 43.5859C122.365 43.5859 118.166 39.1914 118.166 30.4023V2.80469C118.166 2.27734 118.332 1.84766 118.664 1.51562C119.016 1.16406 119.445 0.988281 119.953 0.988281H126.516C127.023 0.988281 127.443 1.16406 127.775 1.51562C128.127 1.84766 128.303 2.27734 128.303 2.80469V12.5898H136.477C136.984 12.5898 137.404 12.7559 137.736 13.0879C138.088 13.4199 138.264 13.8496 138.264 14.377V17.8633C138.264 18.3906 138.088 18.8203 137.736 19.1523C137.404 19.4844 136.984 19.6504 136.477 19.6504H128.303V30.4023C128.303 32.3945 128.771 33.9375 129.709 35.0312C130.646 36.1055 131.896 36.6426 133.459 36.6426ZM145.178 4.76758V3.77148C145.178 2.73633 145.471 1.91602 146.057 1.31055C146.662 0.705078 147.492 0.402344 148.547 0.402344H152.18C153.215 0.402344 154.035 0.705078 154.641 1.31055C155.246 1.89648 155.549 2.7168 155.549 3.77148V4.76758C155.549 5.80273 155.246 6.62305 154.641 7.22852C154.055 7.83398 153.234 8.13672 152.18 8.13672H148.547C147.512 8.13672 146.691 7.83398 146.086 7.22852C145.48 6.62305 145.178 5.80273 145.178 4.76758ZM145.295 41.2129V13.4102C145.295 12.8828 145.461 12.4531 145.793 12.1211C146.145 11.7891 146.574 11.623 147.082 11.623H153.645C154.172 11.623 154.602 11.7988 154.934 12.1504C155.266 12.4824 155.432 12.9023 155.432 13.4102V41.2129C155.432 41.7402 155.256 42.1699 154.904 42.502C154.572 42.834 154.152 43 153.645 43H147.082C146.555 43 146.125 42.834 145.793 42.502C145.461 42.1699 145.295 41.7402 145.295 41.2129ZM186.281 7.84375L182.238 7.3457C178.352 7.3457 175.822 7.87305 174.65 8.92773C173.479 9.96289 172.893 12.1211 172.893 15.4023V15.8711H183.498C184.025 15.8711 184.455 16.0469 184.787 16.3984C185.139 16.7305 185.314 17.1602 185.314 17.6875V21.1738C185.314 21.7012 185.139 22.1309 184.787 22.4629C184.455 22.7949 184.025 22.9609 183.498 22.9609H172.893V41.2129C172.893 41.7402 172.717 42.1699 172.365 42.502C172.033 42.834 171.613 43 171.105 43H164.543C164.016 43 163.586 42.834 163.254 42.502C162.922 42.1699 162.756 41.7402 162.756 41.2129V15.4023C162.756 9.95312 163.996 6.0957 166.477 3.83008C168.957 1.54492 173.312 0.402344 179.543 0.402344C182.746 0.402344 184.982 0.519531 186.252 0.753906C187.521 0.988281 188.322 1.28125 188.654 1.63281C188.986 1.96484 189.152 2.35547 189.152 2.80469V6.02734C189.152 6.55469 188.977 6.99414 188.625 7.3457C188.293 7.67773 187.873 7.84375 187.365 7.84375H186.281ZM191.584 4.76758V3.77148C191.584 2.73633 191.877 1.91602 192.463 1.31055C193.068 0.705078 193.898 0.402344 194.953 0.402344H198.586C199.621 0.402344 200.441 0.705078 201.047 1.31055C201.652 1.89648 201.955 2.7168 201.955 3.77148V4.76758C201.955 5.80273 201.652 6.62305 201.047 7.22852C200.461 7.83398 199.641 8.13672 198.586 8.13672H194.953C193.918 8.13672 193.098 7.83398 192.492 7.22852C191.887 6.62305 191.584 5.80273 191.584 4.76758ZM191.701 41.2129V13.4102C191.701 12.8828 191.867 12.4531 192.199 12.1211C192.551 11.7891 192.98 11.623 193.488 11.623H200.051C200.578 11.623 201.008 11.7988 201.34 12.1504C201.672 12.4824 201.838 12.9023 201.838 13.4102V41.2129C201.838 41.7402 201.662 42.1699 201.311 42.502C200.979 42.834 200.559 43 200.051 43H193.488C192.961 43 192.531 42.834 192.199 42.502C191.867 42.1699 191.701 41.7402 191.701 41.2129ZM224.689 43.5859C219.221 43.5859 214.963 42.1797 211.916 39.3672C208.869 36.5547 207.346 32.4238 207.346 26.9746C207.346 21.5059 208.859 17.3652 211.887 14.5527C214.914 11.7207 219.123 10.3047 224.514 10.3047C229.924 10.3047 234.074 11.1641 236.965 12.8828C239.875 14.6016 241.33 17.1406 241.33 20.5C241.33 21.0273 241.154 21.457 240.803 21.7891C240.471 22.1211 240.041 22.2871 239.514 22.2871H235.148C233.82 22.2871 232.697 21.5742 231.779 20.1484C230.627 18.3125 228.586 17.3945 225.656 17.3945C222.746 17.3945 220.705 18.1465 219.533 19.6504C218.381 21.1348 217.805 23.5664 217.805 26.9453C217.805 30.3242 218.4 32.7656 219.592 34.2695C220.803 35.7734 222.893 36.5254 225.861 36.5254C228.85 36.5254 230.92 35.6074 232.072 33.7715C232.99 32.3262 234.113 31.6035 235.441 31.6035H239.807C240.334 31.6035 240.764 31.7793 241.096 32.1309C241.447 32.4629 241.623 32.8828 241.623 33.3906C241.623 36.75 240.168 39.2891 237.258 41.0078C234.367 42.7266 230.178 43.5859 224.689 43.5859ZM248.479 40.8906C245.9 39.0938 244.611 36.5547 244.611 33.2734C244.611 29.9922 245.9 27.4727 248.479 25.7148C251.076 23.957 254.416 23.0781 258.498 23.0781H268.195C268.195 20.793 267.717 19.2012 266.76 18.3027C265.803 17.4043 264.123 16.9551 261.721 16.9551C259.338 16.9551 257.658 17.5508 256.682 18.7422C255.725 19.9141 254.543 20.5 253.137 20.5H248.771C248.244 20.5 247.805 20.334 247.453 20.002C247.121 19.6504 246.955 19.2207 246.955 18.7129C246.955 13.1074 252.277 10.3047 262.922 10.3047C267.57 10.3047 271.301 11.3496 274.113 13.4395C276.926 15.5098 278.332 18.7227 278.332 23.0781V41.2129C278.332 41.7402 278.166 42.1699 277.834 42.502C277.502 42.834 277.072 43 276.545 43H270.891C270.363 43 269.934 42.834 269.602 42.502C269.27 42.1504 269.104 41.7207 269.104 41.2129V40.3047C266.018 42.5117 262.453 43.6055 258.41 43.5859C254.387 43.5859 251.076 42.6875 248.479 40.8906ZM259.201 29.7285C257.834 29.7285 256.75 30.0605 255.949 30.7246C255.168 31.3887 254.777 32.248 254.777 33.3027C254.777 34.3574 255.188 35.2266 256.008 35.9102C256.828 36.5938 257.99 36.9355 259.494 36.9355C262.502 36.9355 265.402 36.0566 268.195 34.2988V29.7285H259.201ZM300.861 36.6426L304.875 36.291H305.959C306.486 36.291 306.916 36.457 307.248 36.7891C307.6 37.1211 307.775 37.5508 307.775 38.0781V41.2129C307.775 41.6426 307.6 42.0332 307.248 42.3848C306.916 42.7168 306.486 42.9219 305.959 43C303.967 43.3906 301.369 43.5859 298.166 43.5859C289.768 43.5859 285.568 39.1914 285.568 30.4023V2.80469C285.568 2.27734 285.734 1.84766 286.066 1.51562C286.418 1.16406 286.848 0.988281 287.355 0.988281H293.918C294.426 0.988281 294.846 1.16406 295.178 1.51562C295.529 1.84766 295.705 2.27734 295.705 2.80469V12.5898H303.879C304.387 12.5898 304.807 12.7559 305.139 13.0879C305.49 13.4199 305.666 13.8496 305.666 14.377V17.8633C305.666 18.3906 305.49 18.8203 305.139 19.1523C304.807 19.4844 304.387 19.6504 303.879 19.6504H295.705V30.4023C295.705 32.3945 296.174 33.9375 297.111 35.0312C298.049 36.1055 299.299 36.6426 300.861 36.6426ZM312.58 4.76758V3.77148C312.58 2.73633 312.873 1.91602 313.459 1.31055C314.064 0.705078 314.895 0.402344 315.949 0.402344H319.582C320.617 0.402344 321.438 0.705078 322.043 1.31055C322.648 1.89648 322.951 2.7168 322.951 3.77148V4.76758C322.951 5.80273 322.648 6.62305 322.043 7.22852C321.457 7.83398 320.637 8.13672 319.582 8.13672H315.949C314.914 8.13672 314.094 7.83398 313.488 7.22852C312.883 6.62305 312.58 5.80273 312.58 4.76758ZM312.697 41.2129V13.4102C312.697 12.8828 312.863 12.4531 313.195 12.1211C313.547 11.7891 313.977 11.623 314.484 11.623H321.047C321.574 11.623 322.004 11.7988 322.336 12.1504C322.668 12.4824 322.834 12.9023 322.834 13.4102V41.2129C322.834 41.7402 322.658 42.1699 322.307 42.502C321.975 42.834 321.555 43 321.047 43H314.484C313.957 43 313.527 42.834 313.195 42.502C312.863 42.1699 312.697 41.7402 312.697 41.2129ZM332.912 39.3672C329.865 36.5547 328.342 32.4141 328.342 26.9453C328.342 21.457 329.865 17.3164 332.912 14.5234C335.959 11.7109 340.334 10.3047 346.037 10.3047C351.76 10.3047 356.145 11.7109 359.191 14.5234C362.238 17.3164 363.762 21.457 363.762 26.9453C363.762 32.4141 362.238 36.5547 359.191 39.3672C356.145 42.1797 351.76 43.5859 346.037 43.5859C340.334 43.5859 335.959 42.1797 332.912 39.3672ZM340.324 19.3281C339.113 20.9102 338.508 23.4395 338.508 26.916C338.508 30.3926 339.113 32.9316 340.324 34.5332C341.535 36.1348 343.439 36.9355 346.037 36.9355C348.654 36.9355 350.568 36.1348 351.779 34.5332C353.01 32.9316 353.625 30.3926 353.625 26.916C353.625 23.4395 353.01 20.9102 351.779 19.3281C350.568 17.7461 348.654 16.9551 346.037 16.9551C343.439 16.9551 341.535 17.7461 340.324 19.3281ZM369.182 41.2129V12.707C369.182 12.1797 369.348 11.75 369.68 11.418C370.031 11.0664 370.461 10.8906 370.969 10.8906H377.531C378.039 10.8906 378.459 11.0664 378.791 11.418C379.143 11.75 379.318 12.1797 379.318 12.707V14.5527C382.678 11.7207 386.252 10.3047 390.041 10.3047C393.85 10.3047 396.945 11.4668 399.328 13.791C401.711 16.0957 402.902 19.6309 402.902 24.3965V41.2129C402.902 41.7207 402.727 42.1504 402.375 42.502C402.043 42.834 401.613 43 401.086 43H394.553C394.045 43 393.615 42.834 393.264 42.502C392.932 42.1504 392.766 41.7207 392.766 41.2129V24.3965C392.766 19.7285 390.9 17.3945 387.17 17.3945C384.729 17.3945 382.111 18.791 379.318 21.584V41.2129C379.318 41.7207 379.143 42.1504 378.791 42.502C378.459 42.834 378.039 43 377.531 43H370.969C370.461 43 370.031 42.834 369.68 42.502C369.348 42.1504 369.182 41.7207 369.182 41.2129ZM408.322 19.7676C408.322 13.459 413.41 10.3047 423.586 10.3047C434.289 10.3047 439.641 13.1074 439.641 18.7129C439.641 19.2207 439.475 19.6504 439.143 20.002C438.811 20.334 438.381 20.5 437.854 20.5H433.488C432.082 20.5 430.9 19.9141 429.943 18.7422C428.986 17.5508 427.102 16.9551 424.289 16.9551C420.422 16.9551 418.488 17.8926 418.488 19.7676C418.488 20.6465 419.24 21.3789 420.744 21.9648C422.268 22.5508 424.113 23.0684 426.281 23.5176C428.469 23.9473 430.646 24.5039 432.814 25.1875C434.982 25.8711 436.818 26.9648 438.322 28.4688C439.846 29.9531 440.607 31.8379 440.607 34.123C440.607 40.4316 435.236 43.5859 424.494 43.5859C413.752 43.5859 408.381 40.793 408.381 35.207C408.381 34.6797 408.547 34.25 408.879 33.918C409.23 33.5664 409.67 33.3906 410.197 33.3906H414.562C415.969 33.3906 417.15 33.9863 418.107 35.1777C419.064 36.3496 420.949 36.9355 423.762 36.9355C428.234 36.9355 430.471 35.998 430.471 34.123C430.471 33.2441 429.709 32.5117 428.186 31.9258C426.682 31.3398 424.836 30.8223 422.648 30.373C420.461 29.9043 418.283 29.3379 416.115 28.6738C413.967 27.9902 412.131 26.8965 410.607 25.3926C409.084 23.8887 408.322 22.0137 408.322 19.7676Z" fill="url(#paint0_linear_3_20)"/>
<defs>
<linearGradient id="paint0_linear_3_20" x1="220.5" y1="-17" x2="220.5" y2="59" gradientUnits="userSpaceOnUse">
<stop offset="0.395191" stop-color="#057450"/>
<stop offset="1" stop-color="#010E0A"/>
</linearGradient>
</defs>
</svg>
