<svg width="425" height="58" viewBox="0 0 425 58" fill="none" xmlns="http://www.w3.org/2000/svg">
<path d="M0.0078125 53.25V4.61719C0.0078125 3.60156 0.372396 2.74219 1.10156 2.03906C1.83073 1.33594 2.70312 0.984375 3.71875 0.984375H48.7578C49.7734 0.984375 50.6328 1.34896 51.3359 2.07812C52.0651 2.80729 52.4297 3.67969 52.4297 4.69531V8.36719C52.4297 9.38281 52.0651 10.2552 51.3359 10.9844C50.6328 11.6875 49.7734 12.0391 48.7578 12.0391H14.7344V23.4062H44.0312C45.0469 23.4062 45.9062 23.7708 46.6094 24.5C47.3385 25.2031 47.7031 26.0625 47.7031 27.0781V30.75C47.7031 31.7656 47.3385 32.638 46.6094 33.3672C45.9062 34.0703 45.0469 34.4219 44.0312 34.4219H14.7344V45.9453H48.6797C49.6693 45.9453 50.5156 46.2969 51.2188 47C51.9219 47.7031 52.2734 48.5625 52.2734 49.5781V53.3281C52.2734 54.3438 51.9089 55.2161 51.1797 55.9453C50.4505 56.6484 49.5781 57 48.5625 57H3.71875C2.70312 57 1.83073 56.6484 1.10156 55.9453C0.372396 55.2161 0.0078125 54.3177 0.0078125 53.25ZM75.5547 57.7812C70.112 57.7812 65.5547 55.8672 61.8828 52.0391C58.237 48.2109 56.4141 42.7292 56.4141 35.5938C56.4141 28.4323 58.3021 22.9505 62.0781 19.1484C65.8802 15.3203 70.9844 13.4062 77.3906 13.4062C80.6979 13.4062 84.4609 14.0703 88.6797 15.3984V3.40625C88.6797 2.70312 88.901 2.13021 89.3438 1.6875C89.8125 1.21875 90.3854 0.984375 91.0625 0.984375H99.7734C100.477 0.984375 101.049 1.21875 101.492 1.6875C101.961 2.13021 102.195 2.70312 102.195 3.40625V54.6172C102.195 55.2943 101.961 55.8672 101.492 56.3359C101.049 56.7786 100.477 57 99.7734 57H92.2734C91.5703 57 90.9974 56.7786 90.5547 56.3359C90.112 55.8672 89.8906 55.2943 89.8906 54.6172V53.4062C85.776 56.3229 80.9974 57.7812 75.5547 57.7812ZM80.2031 22.8594C76.6094 22.8594 74.0703 23.875 72.5859 25.9062C71.1016 27.9115 70.3594 31.1406 70.3594 35.5938C70.3594 40.0469 71.0625 43.2891 72.4688 45.3203C73.875 47.3516 75.9844 48.3672 78.7969 48.3672C81.6354 48.3672 84.9297 47.1953 88.6797 44.8516V24.4219C85.3203 23.3802 82.4948 22.8594 80.2031 22.8594ZM111.805 38.9922V16.6094C111.805 15.9062 112.026 15.3333 112.469 14.8906C112.938 14.4219 113.51 14.1875 114.188 14.1875H122.938C123.615 14.1875 124.174 14.4219 124.617 14.8906C125.086 15.3333 125.32 15.9062 125.32 16.6094V38.9922C125.32 45.2422 127.794 48.3672 132.742 48.3672C135.997 48.3672 139.5 46.4922 143.25 42.7422V16.6094C143.25 15.9062 143.471 15.3333 143.914 14.8906C144.383 14.4219 144.956 14.1875 145.633 14.1875H154.344C155.047 14.1875 155.62 14.4219 156.062 14.8906C156.531 15.3333 156.766 15.9062 156.766 16.6094V54.6172C156.766 55.2943 156.531 55.8672 156.062 56.3359C155.62 56.7786 155.047 57 154.344 57H145.633C144.956 57 144.383 56.7786 143.914 56.3359C143.471 55.8672 143.25 55.2943 143.25 54.6172V52.1172C138.771 55.8932 133.992 57.7812 128.914 57.7812C123.862 57.7812 119.747 56.2448 116.57 53.1719C113.393 50.0729 111.805 45.3464 111.805 38.9922ZM187.117 57.7812C179.826 57.7812 174.148 55.9062 170.086 52.1562C166.023 48.4062 163.992 42.8984 163.992 35.6328C163.992 28.3411 166.01 22.8203 170.047 19.0703C174.083 15.2943 179.695 13.4062 186.883 13.4062C194.096 13.4062 199.63 14.5521 203.484 16.8438C207.365 19.1354 209.305 22.5208 209.305 27C209.305 27.7031 209.07 28.276 208.602 28.7188C208.159 29.1615 207.586 29.3828 206.883 29.3828H201.062C199.292 29.3828 197.794 28.4323 196.57 26.5312C195.034 24.0833 192.312 22.8594 188.406 22.8594C184.526 22.8594 181.805 23.862 180.242 25.8672C178.706 27.8464 177.938 31.0885 177.938 35.5938C177.938 40.099 178.732 43.3542 180.32 45.3594C181.935 47.3646 184.721 48.3672 188.68 48.3672C192.664 48.3672 195.424 47.1432 196.961 44.6953C198.185 42.7682 199.682 41.8047 201.453 41.8047H207.273C207.977 41.8047 208.549 42.0391 208.992 42.5078C209.461 42.9505 209.695 43.5104 209.695 44.1875C209.695 48.6667 207.755 52.0521 203.875 54.3438C200.021 56.6354 194.435 57.7812 187.117 57.7812ZM218.836 54.1875C215.398 51.7917 213.68 48.4062 213.68 44.0312C213.68 39.6562 215.398 36.2969 218.836 33.9531C222.299 31.6094 226.753 30.4375 232.195 30.4375H245.125C245.125 27.3906 244.487 25.2682 243.211 24.0703C241.935 22.8724 239.695 22.2734 236.492 22.2734C233.315 22.2734 231.076 23.0677 229.773 24.6562C228.497 26.2188 226.922 27 225.047 27H219.227C218.523 27 217.938 26.7786 217.469 26.3359C217.026 25.8672 216.805 25.2943 216.805 24.6172C216.805 17.1432 223.901 13.4062 238.094 13.4062C244.292 13.4062 249.266 14.7995 253.016 17.5859C256.766 20.3464 258.641 24.6302 258.641 30.4375V54.6172C258.641 55.3203 258.419 55.8932 257.977 56.3359C257.534 56.7786 256.961 57 256.258 57H248.719C248.016 57 247.443 56.7786 247 56.3359C246.557 55.8672 246.336 55.2943 246.336 54.6172V53.4062C242.221 56.349 237.469 57.8073 232.078 57.7812C226.714 57.7812 222.299 56.5833 218.836 54.1875ZM233.133 39.3047C231.31 39.3047 229.865 39.7474 228.797 40.6328C227.755 41.5182 227.234 42.6641 227.234 44.0703C227.234 45.4766 227.781 46.6354 228.875 47.5469C229.969 48.4583 231.518 48.9141 233.523 48.9141C237.534 48.9141 241.401 47.7422 245.125 45.3984V39.3047H233.133ZM288.68 48.5234L294.031 48.0547H295.477C296.18 48.0547 296.753 48.276 297.195 48.7188C297.664 49.1615 297.898 49.7344 297.898 50.4375V54.6172C297.898 55.1901 297.664 55.7109 297.195 56.1797C296.753 56.6224 296.18 56.8958 295.477 57C292.82 57.5208 289.357 57.7812 285.086 57.7812C273.888 57.7812 268.289 51.9219 268.289 40.2031V3.40625C268.289 2.70312 268.51 2.13021 268.953 1.6875C269.422 1.21875 269.995 0.984375 270.672 0.984375H279.422C280.099 0.984375 280.659 1.21875 281.102 1.6875C281.57 2.13021 281.805 2.70312 281.805 3.40625V16.4531H292.703C293.38 16.4531 293.94 16.6745 294.383 17.1172C294.852 17.5599 295.086 18.1328 295.086 18.8359V23.4844C295.086 24.1875 294.852 24.7604 294.383 25.2031C293.94 25.6458 293.38 25.8672 292.703 25.8672H281.805V40.2031C281.805 42.8594 282.43 44.9167 283.68 46.375C284.93 47.8073 286.596 48.5234 288.68 48.5234ZM304.305 6.02344V4.69531C304.305 3.3151 304.695 2.22135 305.477 1.41406C306.284 0.606771 307.391 0.203125 308.797 0.203125H313.641C315.021 0.203125 316.115 0.606771 316.922 1.41406C317.729 2.19531 318.133 3.28906 318.133 4.69531V6.02344C318.133 7.40365 317.729 8.4974 316.922 9.30469C316.141 10.112 315.047 10.5156 313.641 10.5156H308.797C307.417 10.5156 306.323 10.112 305.516 9.30469C304.708 8.4974 304.305 7.40365 304.305 6.02344ZM304.461 54.6172V17.5469C304.461 16.8438 304.682 16.2708 305.125 15.8281C305.594 15.3854 306.167 15.1641 306.844 15.1641H315.594C316.297 15.1641 316.87 15.3984 317.312 15.8672C317.755 16.3099 317.977 16.8698 317.977 17.5469V54.6172C317.977 55.3203 317.742 55.8932 317.273 56.3359C316.831 56.7786 316.271 57 315.594 57H306.844C306.141 57 305.568 56.7786 305.125 56.3359C304.682 55.8932 304.461 55.3203 304.461 54.6172ZM331.414 52.1562C327.352 48.4062 325.32 42.8854 325.32 35.5938C325.32 28.276 327.352 22.7552 331.414 19.0312C335.477 15.2812 341.31 13.4062 348.914 13.4062C356.544 13.4062 362.391 15.2812 366.453 19.0312C370.516 22.7552 372.547 28.276 372.547 35.5938C372.547 42.8854 370.516 48.4062 366.453 52.1562C362.391 55.9062 356.544 57.7812 348.914 57.7812C341.31 57.7812 335.477 55.9062 331.414 52.1562ZM341.297 25.4375C339.682 27.5469 338.875 30.9193 338.875 35.5547C338.875 40.1901 339.682 43.5755 341.297 45.7109C342.911 47.8464 345.451 48.9141 348.914 48.9141C352.404 48.9141 354.956 47.8464 356.57 45.7109C358.211 43.5755 359.031 40.1901 359.031 35.5547C359.031 30.9193 358.211 27.5469 356.57 25.4375C354.956 23.3281 352.404 22.2734 348.914 22.2734C345.451 22.2734 342.911 23.3281 341.297 25.4375ZM379.773 54.6172V16.6094C379.773 15.9062 379.995 15.3333 380.438 14.8906C380.906 14.4219 381.479 14.1875 382.156 14.1875H390.906C391.583 14.1875 392.143 14.4219 392.586 14.8906C393.055 15.3333 393.289 15.9062 393.289 16.6094V19.0703C397.768 15.2943 402.534 13.4062 407.586 13.4062C412.664 13.4062 416.792 14.9557 419.969 18.0547C423.146 21.1276 424.734 25.8411 424.734 32.1953V54.6172C424.734 55.2943 424.5 55.8672 424.031 56.3359C423.589 56.7786 423.016 57 422.312 57H413.602C412.924 57 412.352 56.7786 411.883 56.3359C411.44 55.8672 411.219 55.2943 411.219 54.6172V32.1953C411.219 25.9714 408.732 22.8594 403.758 22.8594C400.503 22.8594 397.013 24.7214 393.289 28.4453V54.6172C393.289 55.2943 393.055 55.8672 392.586 56.3359C392.143 56.7786 391.583 57 390.906 57H382.156C381.479 57 380.906 56.7786 380.438 56.3359C379.995 55.8672 379.773 55.2943 379.773 54.6172Z" fill="url(#paint0_linear_3_18)"/>
<defs>
<linearGradient id="paint0_linear_3_18" x1="212" y1="-23" x2="212" y2="79" gradientUnits="userSpaceOnUse">
<stop offset="0.395191" stop-color="#057450"/>
<stop offset="1" stop-color="#010E0A"/>
</linearGradient>
</defs>
</svg>
