<svg width="409" height="58" viewBox="0 0 409 58" fill="none" xmlns="http://www.w3.org/2000/svg">
<path d="M0.632812 53.25V4.61719C0.632812 3.60156 0.997396 2.74219 1.72656 2.03906C2.45573 1.33594 3.32812 0.984375 4.34375 0.984375H49.3828C50.3984 0.984375 51.2578 1.34896 51.9609 2.07812C52.6901 2.80729 53.0547 3.67969 53.0547 4.69531V8.36719C53.0547 9.38281 52.6901 10.2552 51.9609 10.9844C51.2578 11.6875 50.3984 12.0391 49.3828 12.0391H15.3594V25.7891H43.0547C44.0703 25.7891 44.9297 26.1536 45.6328 26.8828C46.362 27.612 46.7266 28.4714 46.7266 29.4609V33.1719C46.7266 34.1875 46.362 35.0599 45.6328 35.7891C44.9297 36.4922 44.0703 36.8438 43.0547 36.8438H15.3594V53.25C15.3594 54.3177 14.9948 55.2161 14.2656 55.9453C13.5625 56.6484 12.7031 57 11.6875 57H4.34375C3.32812 57 2.45573 56.6484 1.72656 55.9453C0.997396 55.2161 0.632812 54.3177 0.632812 53.25ZM59.9297 52.0781C55.9193 48.276 53.9141 42.8073 53.9141 35.6719C53.9141 28.5104 55.9323 23.0156 59.9688 19.1875C64.0052 15.3333 69.6042 13.4062 76.7656 13.4062C83.9271 13.4062 89.513 15.2812 93.5234 19.0312C97.5339 22.7552 99.5391 28.1068 99.5391 35.0859V37.3125C99.5391 38.0156 99.3047 38.6016 98.8359 39.0703C98.3932 39.513 97.8203 39.7344 97.1172 39.7344H67.7031C67.9635 42.9375 68.875 45.2682 70.4375 46.7266C72.026 48.1849 74.5521 48.9141 78.0156 48.9141C81.4792 48.9141 83.849 48.1328 85.125 46.5703C86.401 45.0078 87.9766 44.2135 89.8516 44.1875H95.6719C96.375 44.1875 96.9479 44.4219 97.3906 44.8906C97.8594 45.3333 98.0938 45.9062 98.0938 46.6094C98.0938 54.0833 90.9714 57.8073 76.7266 57.7812C69.5391 57.7812 63.9401 55.8802 59.9297 52.0781ZM67.625 31.4922H85.7891C85.5286 25.3464 82.5078 22.2734 76.7266 22.2734C70.9714 22.2734 67.9375 25.3464 67.625 31.4922ZM110.32 52.0781C106.31 48.276 104.305 42.8073 104.305 35.6719C104.305 28.5104 106.323 23.0156 110.359 19.1875C114.396 15.3333 119.995 13.4062 127.156 13.4062C134.318 13.4062 139.904 15.2812 143.914 19.0312C147.924 22.7552 149.93 28.1068 149.93 35.0859V37.3125C149.93 38.0156 149.695 38.6016 149.227 39.0703C148.784 39.513 148.211 39.7344 147.508 39.7344H118.094C118.354 42.9375 119.266 45.2682 120.828 46.7266C122.417 48.1849 124.943 48.9141 128.406 48.9141C131.87 48.9141 134.24 48.1328 135.516 46.5703C136.792 45.0078 138.367 44.2135 140.242 44.1875H146.062C146.766 44.1875 147.339 44.4219 147.781 44.8906C148.25 45.3333 148.484 45.9062 148.484 46.6094C148.484 54.0833 141.362 57.8073 127.117 57.7812C119.93 57.7812 114.331 55.8802 110.32 52.0781ZM118.016 31.4922H136.18C135.919 25.3464 132.898 22.2734 127.117 22.2734C121.362 22.2734 118.328 25.3464 118.016 31.4922ZM173.836 57.7812C168.393 57.7812 163.836 55.8672 160.164 52.0391C156.518 48.2109 154.695 42.7292 154.695 35.5938C154.695 28.4323 156.583 22.9505 160.359 19.1484C164.161 15.3203 169.266 13.4062 175.672 13.4062C178.979 13.4062 182.742 14.0703 186.961 15.3984V3.40625C186.961 2.70312 187.182 2.13021 187.625 1.6875C188.094 1.21875 188.667 0.984375 189.344 0.984375H198.055C198.758 0.984375 199.331 1.21875 199.773 1.6875C200.242 2.13021 200.477 2.70312 200.477 3.40625V54.6172C200.477 55.2943 200.242 55.8672 199.773 56.3359C199.331 56.7786 198.758 57 198.055 57H190.555C189.852 57 189.279 56.7786 188.836 56.3359C188.393 55.8672 188.172 55.2943 188.172 54.6172V53.4062C184.057 56.3229 179.279 57.7812 173.836 57.7812ZM178.484 22.8594C174.891 22.8594 172.352 23.875 170.867 25.9062C169.383 27.9115 168.641 31.1406 168.641 35.5938C168.641 40.0469 169.344 43.2891 170.75 45.3203C172.156 47.3516 174.266 48.3672 177.078 48.3672C179.917 48.3672 183.211 47.1953 186.961 44.8516V24.4219C183.602 23.3802 180.776 22.8594 178.484 22.8594ZM210.086 3.40625C210.086 2.70312 210.307 2.13021 210.75 1.6875C211.219 1.21875 211.792 0.984375 212.469 0.984375H221.219C221.896 0.984375 222.456 1.21875 222.898 1.6875C223.367 2.13021 223.602 2.70312 223.602 3.40625V15.3984C227.82 14.0703 231.583 13.4062 234.891 13.4062C241.297 13.4062 246.388 15.3203 250.164 19.1484C253.94 22.9505 255.828 28.4453 255.828 35.6328C255.828 50.3984 247.56 57.7812 231.023 57.7812C227.247 57.7812 223.328 57.3646 219.266 56.5312C215.229 55.6719 212.169 54.6302 210.086 53.4062V3.40625ZM223.602 24.4219V47.4688C225.841 48.0677 228.693 48.3672 232.156 48.3672C235.62 48.3672 238.107 47.3646 239.617 45.3594C241.154 43.3542 241.922 40.112 241.922 35.6328C241.922 31.1536 241.167 27.9115 239.656 25.9062C238.172 23.875 235.646 22.8594 232.078 22.8594C229.786 22.8594 226.961 23.3802 223.602 24.4219ZM265.789 54.1875C262.352 51.7917 260.633 48.4062 260.633 44.0312C260.633 39.6562 262.352 36.2969 265.789 33.9531C269.253 31.6094 273.706 30.4375 279.148 30.4375H292.078C292.078 27.3906 291.44 25.2682 290.164 24.0703C288.888 22.8724 286.648 22.2734 283.445 22.2734C280.268 22.2734 278.029 23.0677 276.727 24.6562C275.451 26.2188 273.875 27 272 27H266.18C265.477 27 264.891 26.7786 264.422 26.3359C263.979 25.8672 263.758 25.2943 263.758 24.6172C263.758 17.1432 270.854 13.4062 285.047 13.4062C291.245 13.4062 296.219 14.7995 299.969 17.5859C303.719 20.3464 305.594 24.6302 305.594 30.4375V54.6172C305.594 55.3203 305.372 55.8932 304.93 56.3359C304.487 56.7786 303.914 57 303.211 57H295.672C294.969 57 294.396 56.7786 293.953 56.3359C293.51 55.8672 293.289 55.2943 293.289 54.6172V53.4062C289.174 56.349 284.422 57.8073 279.031 57.7812C273.667 57.7812 269.253 56.5833 265.789 54.1875ZM280.086 39.3047C278.263 39.3047 276.818 39.7474 275.75 40.6328C274.708 41.5182 274.188 42.6641 274.188 44.0703C274.188 45.4766 274.734 46.6354 275.828 47.5469C276.922 48.4583 278.471 48.9141 280.477 48.9141C284.487 48.9141 288.354 47.7422 292.078 45.3984V39.3047H280.086ZM335.945 57.7812C328.654 57.7812 322.977 55.9062 318.914 52.1562C314.852 48.4062 312.82 42.8984 312.82 35.6328C312.82 28.3411 314.839 22.8203 318.875 19.0703C322.911 15.2943 328.523 13.4062 335.711 13.4062C342.924 13.4062 348.458 14.5521 352.312 16.8438C356.193 19.1354 358.133 22.5208 358.133 27C358.133 27.7031 357.898 28.276 357.43 28.7188C356.987 29.1615 356.414 29.3828 355.711 29.3828H349.891C348.12 29.3828 346.622 28.4323 345.398 26.5312C343.862 24.0833 341.141 22.8594 337.234 22.8594C333.354 22.8594 330.633 23.862 329.07 25.8672C327.534 27.8464 326.766 31.0885 326.766 35.5938C326.766 40.099 327.56 43.3542 329.148 45.3594C330.763 47.3646 333.549 48.3672 337.508 48.3672C341.492 48.3672 344.253 47.1432 345.789 44.6953C347.013 42.7682 348.51 41.8047 350.281 41.8047H356.102C356.805 41.8047 357.378 42.0391 357.82 42.5078C358.289 42.9505 358.523 43.5104 358.523 44.1875C358.523 48.6667 356.583 52.0521 352.703 54.3438C348.849 56.6354 343.263 57.7812 335.945 57.7812ZM408.094 55.2812C408.094 56.4271 407.417 57 406.062 57H398.68C396.18 57 394.188 55.776 392.703 53.3281L387.742 45.2422C385.607 41.7786 382.508 40.0469 378.445 40.0469V54.6172C378.445 55.3203 378.211 55.8932 377.742 56.3359C377.299 56.7786 376.74 57 376.062 57H367.312C366.609 57 366.036 56.7786 365.594 56.3359C365.151 55.8932 364.93 55.3203 364.93 54.6172V3.40625C364.93 2.70312 365.151 2.13021 365.594 1.6875C366.062 1.21875 366.635 0.984375 367.312 0.984375H376.062C376.766 0.984375 377.339 1.21875 377.781 1.6875C378.224 2.13021 378.445 2.70312 378.445 3.40625V31.1406C382.977 31.1406 386.076 29.3828 387.742 25.8672L391.492 17.8984C392.013 16.7786 392.781 15.8802 393.797 15.2031C394.812 14.526 395.906 14.1875 397.078 14.1875H404.461C405.763 14.1875 406.414 14.6953 406.414 15.7109C406.414 16.2839 406.206 17.013 405.789 17.8984L400.75 28.5234C399.891 30.2943 398.719 31.8177 397.234 33.0938C395.75 34.3698 394.148 35.1901 392.43 35.5547C395.633 36.5182 398.406 38.862 400.75 42.5859L407.391 53.3281C407.833 54.0833 408.068 54.7344 408.094 55.2812Z" fill="url(#paint0_linear_3_24)"/>
<defs>
<linearGradient id="paint0_linear_3_24" x1="202" y1="-23" x2="202" y2="79" gradientUnits="userSpaceOnUse">
<stop offset="0.395191" stop-color="#057450"/>
<stop offset="1" stop-color="#010E0A"/>
</linearGradient>
</defs>
</svg>
